<?xml version="1.0" encoding="UTF-8"?>
<svg width="48" height="48" viewBox="0 0 48 48" fill="none" xmlns="http://www.w3.org/2000/svg">
  <path d="M24 37.1716L26.8284 40L40 26.8284L37.1716 24L24 37.1716Z" fill="#0B2FEB"/>
  <path d="M8 37.1716L10.8284 40L24 26.8284L21.1716 24L8 37.1716Z" fill="#0B2FEB"/>
  <path d="M24 21.1716L26.8284 24L40 10.8284L37.1716 8L24 21.1716Z" fill="#0B2FEB"/>
  <path d="M8 21.1716L10.8284 24L24 10.8284L21.1716 8L8 21.1716Z" fill="#0B2FEB"/>
  <path d="M12 8C12 10.2091 10.2091 12 8 12C5.79086 12 4 10.2091 4 8C4 5.79086 5.79086 4 8 4C10.2091 4 12 5.79086 12 8Z" fill="#0B2FEB" stroke="#0B2FEB" stroke-width="4" stroke-linecap="square" stroke-linejoin="bevel"/>
  <path d="M28 8C28 10.2091 26.2091 12 24 12C21.7909 12 20 10.2091 20 8C20 5.79086 21.7909 4 24 4C26.2091 4 28 5.79086 28 8Z" fill="#0B2FEB" stroke="#0B2FEB" stroke-width="4" stroke-linecap="square" stroke-linejoin="bevel"/>
  <path d="M44 8C44 10.2091 42.2091 12 40 12C37.7909 12 36 10.2091 36 8C36 5.79086 37.7909 4 40 4C42.2091 4 44 5.79086 44 8Z" fill="#0B2FEB" stroke="#0B2FEB" stroke-width="4" stroke-linecap="square" stroke-linejoin="bevel"/>
  <path d="M44 24C44 26.2091 42.2091 28 40 28C37.7909 28 36 26.2091 36 24C36 21.7909 37.7909 20 40 20C42.2091 20 44 21.7909 44 24Z" fill="#0B2FEB" stroke="#0B2FEB" stroke-width="4" stroke-linecap="square" stroke-linejoin="bevel"/>
  <path d="M44 40C44 42.2091 42.2091 44 40 44C37.7909 44 36 42.2091 36 40C36 37.7909 37.7909 36 40 36C42.2091 36 44 37.7909 44 40Z" fill="#0B2FEB" stroke="#0B2FEB" stroke-width="4" stroke-linecap="square" stroke-linejoin="bevel"/>
  <path d="M28 40C28 42.2091 26.2091 44 24 44C21.7909 44 20 42.2091 20 40C20 37.7909 21.7909 36 24 36C26.2091 36 28 37.7909 28 40Z" fill="#0B2FEB" stroke="#0B2FEB" stroke-width="4" stroke-linecap="square" stroke-linejoin="bevel"/>
  <path d="M12 40C12 42.2091 10.2091 44 8 44C5.79086 44 4 42.2091 4 40C4 37.7909 5.79086 36 8 36C10.2091 36 12 37.7909 12 40Z" fill="#0B2FEB" stroke="#0B2FEB" stroke-width="4" stroke-linecap="square" stroke-linejoin="bevel"/>
  <path d="M12 24C12 26.2091 10.2091 28 8 28C5.79086 28 4 26.2091 4 24C4 21.7909 5.79086 20 8 20C10.2091 20 12 21.7909 12 24Z" fill="#0B2FEB" stroke="#0B2FEB" stroke-width="4" stroke-linecap="square" stroke-linejoin="bevel"/>
  <path d="M28 24C28 26.2091 26.2091 28 24 28C21.7909 28 20 26.2091 20 24C20 21.7909 21.7909 20 24 20C26.2091 20 28 21.7909 28 24Z" fill="#0B2FEB" stroke="#0B2FEB" stroke-width="4" stroke-linecap="square" stroke-linejoin="bevel"/>
</svg>
